<svg xmlns="http://www.w3.org/2000/svg" version="1.1" xmlns:xlink="http://www.w3.org/1999/xlink" xmlns:svgjs="http://svgjs.dev/svgjs" width="2000" height="813" viewBox="0 0 2000 813"><g transform="matrix(1,0,0,1,-1.2121212121212466,-1.092736519587902)"><svg viewBox="0 0 396 161" data-background-color="#f7fbff" preserveAspectRatio="xMidYMid meet" height="813" width="2000" xmlns="http://www.w3.org/2000/svg" xmlns:xlink="http://www.w3.org/1999/xlink"><g id="tight-bounds" transform="matrix(1,0,0,1,0.2400000000000091,0.21639677694176385)"><svg viewBox="0 0 395.52 160.56720644611647" height="160.56720644611647" width="395.52"><g><svg viewBox="0 0 655.3971229655717 266.06817644468987" height="160.56720644611647" width="395.52"><g transform="matrix(1,0,0,1,259.8771229655718,36.77208516710259)"><svg viewBox="0 0 395.5199999999999 192.5240061104847" height="192.5240061104847" width="395.5199999999999"><g id="textblocktransform"><svg viewBox="0 0 395.5199999999999 192.5240061104847" height="192.5240061104847" width="395.5199999999999" id="textblock"><g><svg viewBox="0 0 395.5199999999999 130.92171144278606" height="130.92171144278606" width="395.5199999999999"><g transform="matrix(1,0,0,1,0,0)"><svg width="395.5199999999999" viewBox="1.7 -37 150.74 49.9" height="130.92171144278606" data-palette-color="#4096ff"><g class="wordmark-text-0" data-fill-palette-color="primary" id="text-0"><path d="M1.7-34.85L25.3-34.85 25.3-31.15 15.8-31.15 15.8 0 11.25 0 11.25-31.15 1.7-31.15 1.7-34.85ZM29.2-13.8Q29.2-18 30.9-21.18 32.6-24.35 35.57-26.1 38.55-27.85 42.2-27.85L42.2-27.85Q45.8-27.85 48.45-26.3 51.1-24.75 52.4-22.4L52.4-22.4 52.4-27.4 57-27.4 57 0 52.4 0 52.4-5.1Q51.05-2.7 48.37-1.13 45.7 0.45 42.15 0.45L42.15 0.45Q38.5 0.45 35.55-1.35 32.6-3.15 30.9-6.4 29.2-9.65 29.2-13.8L29.2-13.8ZM52.4-13.75Q52.4-16.85 51.15-19.15 49.9-21.45 47.77-22.68 45.65-23.9 43.1-23.9L43.1-23.9Q40.55-23.9 38.45-22.7 36.35-21.5 35.1-19.2 33.85-16.9 33.85-13.8L33.85-13.8Q33.85-10.65 35.1-8.33 36.35-6 38.45-4.78 40.55-3.55 43.1-3.55L43.1-3.55Q45.65-3.55 47.77-4.78 49.9-6 51.15-8.33 52.4-10.65 52.4-13.75L52.4-13.75ZM74.4 0.45Q71.25 0.45 68.75-0.63 66.25-1.7 64.8-3.63 63.35-5.55 63.2-8.05L63.2-8.05 67.9-8.05Q68.09-6 69.82-4.7 71.55-3.4 74.34-3.4L74.34-3.4Q76.95-3.4 78.45-4.55 79.95-5.7 79.95-7.45L79.95-7.45Q79.95-9.25 78.34-10.13 76.75-11 73.4-11.85L73.4-11.85Q70.34-12.65 68.42-13.48 66.5-14.3 65.12-15.93 63.75-17.55 63.75-20.2L63.75-20.2Q63.75-22.3 65-24.05 66.25-25.8 68.55-26.83 70.84-27.85 73.8-27.85L73.8-27.85Q78.34-27.85 81.15-25.55 83.95-23.25 84.15-19.25L84.15-19.25 79.59-19.25Q79.45-21.4 77.87-22.7 76.3-24 73.65-24L73.65-24Q71.2-24 69.75-22.95 68.3-21.9 68.3-20.2L68.3-20.2Q68.3-18.85 69.17-17.98 70.05-17.1 71.37-16.57 72.7-16.05 75.05-15.4L75.05-15.4Q78-14.6 79.84-13.83 81.7-13.05 83.02-11.5 84.34-9.95 84.4-7.45L84.4-7.45Q84.4-5.2 83.15-3.4 81.9-1.6 79.62-0.58 77.34 0.45 74.4 0.45L74.4 0.45ZM112.29 0L106.09 0 95.34-12.1 95.34 0 90.79 0 90.79-37 95.34-37 95.34-15.25 105.89-27.4 112.24-27.4 99.34-13.75 112.29 0ZM116.54-37L121.09-37 121.09 0 116.54 0 116.54-37ZM147.74-27.4L152.44-27.4 135.94 12.9 131.24 12.9 136.64-0.3 125.59-27.4 130.64-27.4 139.24-5.2 147.74-27.4Z" fill="#4096ff" data-fill-palette-color="primary"></path></g></svg></g></svg></g><g transform="matrix(1,0,0,1,0,161.8291853933532)"><svg viewBox="0 0 395.5199999999999 30.69482071713147" height="30.69482071713147" width="395.5199999999999"><g transform="matrix(1,0,0,1,0,0)"><svg width="395.5199999999999" viewBox="2.1 -35.6 602.3299999999999 46.75" height="30.69482071713147" data-palette-color="#4096ff"><path d="M13.6 0.6L13.6 0.6Q10.2 0.6 7.25-0.73 4.3-2.05 2.1-4.25L2.1-4.25 4.7-7.3Q6.5-5.45 8.83-4.35 11.15-3.25 13.7-3.25L13.7-3.25Q16.85-3.25 18.63-4.67 20.4-6.1 20.4-8.45L20.4-8.45Q20.4-10.1 19.68-11.08 18.95-12.05 17.73-12.73 16.5-13.4 14.95-14.1L14.95-14.1 10.3-16.15Q8.75-16.8 7.23-17.88 5.7-18.95 4.67-20.58 3.65-22.2 3.65-24.6L3.65-24.6Q3.65-27.15 5-29.13 6.35-31.1 8.7-32.25 11.05-33.4 14.05-33.4L14.05-33.4Q17-33.4 19.53-32.27 22.05-31.15 23.8-29.3L23.8-29.3 21.45-26.5Q19.95-27.9 18.13-28.73 16.3-29.55 14.05-29.55L14.05-29.55Q11.35-29.55 9.73-28.3 8.1-27.05 8.1-24.9L8.1-24.9Q8.1-23.35 8.9-22.38 9.7-21.4 10.95-20.78 12.2-20.15 13.5-19.55L13.5-19.55 18.1-17.55Q20.05-16.75 21.55-15.63 23.05-14.5 23.95-12.85 24.85-11.2 24.85-8.8L24.85-8.8Q24.85-6.2 23.5-4.05 22.15-1.9 19.63-0.65 17.1 0.6 13.6 0.6ZM35.15 0L30.8 0 30.8-24.35 34.35-24.35 34.75-20.85 34.85-20.85Q36.45-22.55 38.35-23.75 40.25-24.95 42.45-24.95L42.45-24.95Q45.2-24.95 46.8-23.7 48.4-22.45 49.15-20.35L49.15-20.35Q51.05-22.4 53-23.68 54.95-24.95 57.15-24.95L57.15-24.95Q60.95-24.95 62.75-22.5 64.55-20.05 64.55-15.4L64.55-15.4 64.55 0 60.25 0 60.25-14.85Q60.25-18.2 59.17-19.7 58.1-21.2 55.8-21.2L55.8-21.2Q54.45-21.2 52.97-20.3 51.5-19.4 49.85-17.55L49.85-17.55 49.85 0 45.5 0 45.5-14.85Q45.5-18.2 44.45-19.7 43.4-21.2 41.1-21.2L41.1-21.2Q38.4-21.2 35.15-17.55L35.15-17.55 35.15 0ZM78 0.6L78 0.6Q75.95 0.6 74.32-0.23 72.7-1.05 71.77-2.63 70.84-4.2 70.84-6.35L70.84-6.35Q70.84-10.3 74.42-12.45 78-14.6 85.7-15.4L85.7-15.4Q85.7-16.95 85.3-18.32 84.9-19.7 83.8-20.55 82.7-21.4 80.8-21.4L80.8-21.4Q78.7-21.4 76.87-20.58 75.05-19.75 73.59-18.8L73.59-18.8 71.89-21.75Q73.05-22.5 74.55-23.25 76.05-24 77.8-24.48 79.55-24.95 81.5-24.95L81.5-24.95Q84.5-24.95 86.4-23.7 88.3-22.45 89.17-20.2 90.05-17.95 90.05-14.85L90.05-14.85 90.05 0 86.5 0 86.09-2.9 86-2.9Q84.25-1.45 82.25-0.43 80.25 0.6 78 0.6ZM79.25-2.9L79.25-2.9Q81-2.9 82.5-3.7 84-4.5 85.7-6L85.7-6 85.7-12.6Q81.75-12.1 79.42-11.3 77.09-10.5 76.09-9.33 75.09-8.15 75.09-6.65L75.09-6.65Q75.09-4.65 76.32-3.78 77.55-2.9 79.25-2.9ZM101.99 0L97.64 0 97.64-24.35 101.19-24.35 101.59-19.9 101.69-19.9Q102.99-22.25 104.79-23.6 106.59-24.95 108.64-24.95L108.64-24.95Q109.44-24.95 110.07-24.83 110.69-24.7 111.24-24.45L111.24-24.45 110.44-20.65Q109.84-20.85 109.34-20.95 108.84-21.05 108.09-21.05L108.09-21.05Q106.54-21.05 104.87-19.83 103.19-18.6 101.99-15.5L101.99-15.5 101.99 0ZM122.94 0.6L122.94 0.6Q119.04 0.6 117.49-1.68 115.94-3.95 115.94-7.6L115.94-7.6 115.94-20.8 112.34-20.8 112.34-24.1 116.14-24.35 116.64-31.15 120.24-31.15 120.24-24.35 126.79-24.35 126.79-20.8 120.24-20.8 120.24-7.55Q120.24-5.35 121.09-4.13 121.94-2.9 123.99-2.9L123.99-2.9Q124.64-2.9 125.39-3.1 126.14-3.3 126.74-3.55L126.74-3.55 127.54-0.3Q126.54 0.05 125.34 0.33 124.14 0.6 122.94 0.6ZM151.44 0L146.19 0 139.28-32.8 143.84-32.8 147.19-15.1Q147.63-12.5 148.11-9.85 148.59-7.2 149.09-4.55L149.09-4.55 149.28-4.55Q149.78-7.2 150.38-9.85 150.99-12.5 151.53-15.1L151.53-15.1 156.03-32.8 159.99-32.8 164.49-15.1Q165.09-12.5 165.66-9.85 166.24-7.2 166.78-4.55L166.78-4.55 166.99-4.55Q167.49-7.2 167.94-9.85 168.38-12.5 168.84-15.1L168.84-15.1 172.19-32.8 176.44-32.8 169.69 0 164.38 0 159.53-19.4Q159.13-21.3 158.74-23.13 158.34-24.95 157.99-26.85L157.99-26.85 157.78-26.85Q157.44-24.95 157.01-23.13 156.59-21.3 156.19-19.4L156.19-19.4 151.44 0ZM187.28 0.6L187.28 0.6Q185.23 0.6 183.61-0.23 181.98-1.05 181.06-2.63 180.13-4.2 180.13-6.35L180.13-6.35Q180.13-10.3 183.71-12.45 187.28-14.6 194.98-15.4L194.98-15.4Q194.98-16.95 194.58-18.32 194.18-19.7 193.08-20.55 191.98-21.4 190.08-21.4L190.08-21.4Q187.98-21.4 186.16-20.58 184.33-19.75 182.88-18.8L182.88-18.8 181.18-21.75Q182.33-22.5 183.83-23.25 185.33-24 187.08-24.48 188.83-24.95 190.78-24.95L190.78-24.95Q193.78-24.95 195.68-23.7 197.58-22.45 198.46-20.2 199.33-17.95 199.33-14.85L199.33-14.85 199.33 0 195.78 0 195.38-2.9 195.28-2.9Q193.53-1.45 191.53-0.43 189.53 0.6 187.28 0.6ZM188.53-2.9L188.53-2.9Q190.28-2.9 191.78-3.7 193.28-4.5 194.98-6L194.98-6 194.98-12.6Q191.03-12.1 188.71-11.3 186.38-10.5 185.38-9.33 184.38-8.15 184.38-6.65L184.38-6.65Q184.38-4.65 185.61-3.78 186.83-2.9 188.53-2.9ZM207.48 10.4L207.48 10.4Q206.63 10.4 205.93 10.25 205.23 10.1 204.58 9.9L204.58 9.9 205.43 6.5Q205.83 6.6 206.33 6.73 206.83 6.85 207.28 6.85L207.28 6.85Q209.33 6.85 210.66 5.4 211.98 3.95 212.68 1.75L212.68 1.75 213.23 0 203.48-24.35 207.93-24.35 212.78-11.1Q213.38-9.5 213.98-7.73 214.58-5.95 215.13-4.2L215.13-4.2 215.33-4.2Q215.88-5.9 216.38-7.68 216.88-9.45 217.38-11.1L217.38-11.1 221.58-24.35 225.83-24.35 216.73 1.9Q215.83 4.35 214.63 6.28 213.43 8.2 211.71 9.3 209.98 10.4 207.48 10.4ZM248.23 0.6L248.23 0.6Q244.33 0.6 242.78-1.68 241.23-3.95 241.23-7.6L241.23-7.6 241.23-20.8 237.63-20.8 237.63-24.1 241.43-24.35 241.93-31.15 245.53-31.15 245.53-24.35 252.08-24.35 252.08-20.8 245.53-20.8 245.53-7.55Q245.53-5.35 246.38-4.13 247.23-2.9 249.28-2.9L249.28-2.9Q249.93-2.9 250.68-3.1 251.43-3.3 252.03-3.55L252.03-3.55 252.83-0.3Q251.83 0.05 250.63 0.33 249.43 0.6 248.23 0.6ZM267.07 0.6L267.07 0.6Q264.07 0.6 261.47-0.9 258.87-2.4 257.3-5.25 255.72-8.1 255.72-12.15L255.72-12.15Q255.72-16.2 257.3-19.07 258.87-21.95 261.47-23.45 264.07-24.95 267.07-24.95L267.07-24.95Q270.02-24.95 272.6-23.45 275.17-21.95 276.77-19.07 278.37-16.2 278.37-12.15L278.37-12.15Q278.37-8.1 276.77-5.25 275.17-2.4 272.6-0.9 270.02 0.6 267.07 0.6ZM267.07-3L267.07-3Q269.12-3 270.67-4.15 272.22-5.3 273.05-7.35 273.87-9.4 273.87-12.15L273.87-12.15Q273.87-14.9 273.05-16.98 272.22-19.05 270.67-20.2 269.12-21.35 267.07-21.35L267.07-21.35Q265.02-21.35 263.47-20.2 261.92-19.05 261.07-16.98 260.22-14.9 260.22-12.15L260.22-12.15Q260.22-9.4 261.07-7.35 261.92-5.3 263.47-4.15 265.02-3 267.07-3ZM304.22 0.6L304.22 0.6Q300.82 0.6 297.87-0.73 294.92-2.05 292.72-4.25L292.72-4.25 295.32-7.3Q297.12-5.45 299.44-4.35 301.77-3.25 304.32-3.25L304.32-3.25Q307.47-3.25 309.24-4.67 311.02-6.1 311.02-8.45L311.02-8.45Q311.02-10.1 310.29-11.08 309.57-12.05 308.34-12.73 307.12-13.4 305.57-14.1L305.57-14.1 300.92-16.15Q299.37-16.8 297.84-17.88 296.32-18.95 295.29-20.58 294.27-22.2 294.27-24.6L294.27-24.6Q294.27-27.15 295.62-29.13 296.97-31.1 299.32-32.25 301.67-33.4 304.67-33.4L304.67-33.4Q307.62-33.4 310.14-32.27 312.67-31.15 314.42-29.3L314.42-29.3 312.07-26.5Q310.57-27.9 308.74-28.73 306.92-29.55 304.67-29.55L304.67-29.55Q301.97-29.55 300.34-28.3 298.72-27.05 298.72-24.9L298.72-24.9Q298.72-23.35 299.52-22.38 300.32-21.4 301.57-20.78 302.82-20.15 304.12-19.55L304.12-19.55 308.72-17.55Q310.67-16.75 312.17-15.63 313.67-14.5 314.57-12.85 315.47-11.2 315.47-8.8L315.47-8.8Q315.47-6.2 314.12-4.05 312.77-1.9 310.24-0.65 307.72 0.6 304.22 0.6ZM329.17 0.6L329.17 0.6Q325.27 0.6 323.72-1.68 322.17-3.95 322.17-7.6L322.17-7.6 322.17-20.8 318.57-20.8 318.57-24.1 322.37-24.35 322.87-31.15 326.47-31.15 326.47-24.35 333.02-24.35 333.02-20.8 326.47-20.8 326.47-7.55Q326.47-5.35 327.32-4.13 328.17-2.9 330.22-2.9L330.22-2.9Q330.87-2.9 331.62-3.1 332.37-3.3 332.97-3.55L332.97-3.55 333.77-0.3Q332.77 0.05 331.57 0.33 330.37 0.6 329.17 0.6ZM344.11 0.6L344.11 0.6Q342.06 0.6 340.44-0.23 338.81-1.05 337.89-2.63 336.96-4.2 336.96-6.35L336.96-6.35Q336.96-10.3 340.54-12.45 344.11-14.6 351.81-15.4L351.81-15.4Q351.81-16.95 351.41-18.32 351.01-19.7 349.91-20.55 348.81-21.4 346.91-21.4L346.91-21.4Q344.81-21.4 342.99-20.58 341.16-19.75 339.71-18.8L339.71-18.8 338.01-21.75Q339.16-22.5 340.66-23.25 342.16-24 343.91-24.48 345.66-24.95 347.61-24.95L347.61-24.95Q350.61-24.95 352.51-23.7 354.41-22.45 355.29-20.2 356.16-17.95 356.16-14.85L356.16-14.85 356.16 0 352.61 0 352.21-2.9 352.11-2.9Q350.36-1.45 348.36-0.43 346.36 0.6 344.11 0.6ZM345.36-2.9L345.36-2.9Q347.11-2.9 348.61-3.7 350.11-4.5 351.81-6L351.81-6 351.81-12.6Q347.86-12.1 345.54-11.3 343.21-10.5 342.21-9.33 341.21-8.15 341.21-6.65L341.21-6.65Q341.21-4.65 342.44-3.78 343.66-2.9 345.36-2.9ZM364.31 10.4L364.31 10.4Q363.46 10.4 362.76 10.25 362.06 10.1 361.41 9.9L361.41 9.9 362.26 6.5Q362.66 6.6 363.16 6.73 363.66 6.85 364.11 6.85L364.11 6.85Q366.16 6.85 367.49 5.4 368.81 3.95 369.51 1.75L369.51 1.75 370.06 0 360.31-24.35 364.76-24.35 369.61-11.1Q370.21-9.5 370.81-7.73 371.41-5.95 371.96-4.2L371.96-4.2 372.16-4.2Q372.71-5.9 373.21-7.68 373.71-9.45 374.21-11.1L374.21-11.1 378.41-24.35 382.66-24.35 373.56 1.9Q372.66 4.35 371.46 6.28 370.26 8.2 368.54 9.3 366.81 10.4 364.31 10.4ZM409.91 0.6L409.91 0.6Q405.76 0.6 402.58-1.48 399.41-3.55 397.61-7.4 395.81-11.25 395.81-16.5L395.81-16.5Q395.81-21.8 397.61-25.58 399.41-29.35 402.58-31.38 405.76-33.4 409.91-33.4L409.91-33.4Q414.06-33.4 417.23-31.38 420.41-29.35 422.18-25.58 423.96-21.8 423.96-16.5L423.96-16.5Q423.96-11.25 422.18-7.4 420.41-3.55 417.23-1.48 414.06 0.6 409.91 0.6ZM409.91-3.25L409.91-3.25Q412.76-3.25 414.91-4.9 417.06-6.55 418.26-9.53 419.46-12.5 419.46-16.5L419.46-16.5Q419.46-20.55 418.26-23.48 417.06-26.4 414.91-27.98 412.76-29.55 409.91-29.55L409.91-29.55Q407.01-29.55 404.86-27.98 402.71-26.4 401.53-23.48 400.36-20.55 400.36-16.5L400.36-16.5Q400.36-12.5 401.53-9.53 402.71-6.55 404.86-4.9 407.01-3.25 409.91-3.25ZM434.95 0L430.6 0 430.6-24.35 434.15-24.35 434.55-19.9 434.65-19.9Q435.95-22.25 437.75-23.6 439.55-24.95 441.6-24.95L441.6-24.95Q442.4-24.95 443.03-24.83 443.65-24.7 444.2-24.45L444.2-24.45 443.4-20.65Q442.8-20.85 442.3-20.95 441.8-21.05 441.05-21.05L441.05-21.05Q439.5-21.05 437.83-19.83 436.15-18.6 434.95-15.5L434.95-15.5 434.95 0ZM456.4 11.15L456.4 11.15Q453.45 11.15 451.15 10.38 448.85 9.6 447.58 8.18 446.3 6.75 446.3 4.65L446.3 4.65Q446.3 3.05 447.25 1.65 448.2 0.25 449.9-0.8L449.9-0.8 449.9-1Q448.95-1.65 448.33-2.63 447.7-3.6 447.7-5L447.7-5Q447.7-6.55 448.58-7.73 449.45-8.9 450.4-9.55L450.4-9.55 450.4-9.75Q449.2-10.7 448.2-12.4 447.2-14.1 447.2-16.25L447.2-16.25Q447.2-18.95 448.48-20.9 449.75-22.85 451.85-23.9 453.95-24.95 456.4-24.95L456.4-24.95Q457.45-24.95 458.33-24.78 459.2-24.6 459.9-24.35L459.9-24.35 468.4-24.35 468.4-21 463.5-21Q464.3-20.2 464.85-18.93 465.4-17.65 465.4-16.15L465.4-16.15Q465.4-13.5 464.2-11.63 463-9.75 460.95-8.72 458.9-7.7 456.4-7.7L456.4-7.7Q455.55-7.7 454.63-7.93 453.7-8.15 452.85-8.5L452.85-8.5Q452.2-8 451.78-7.35 451.35-6.7 451.35-5.7L451.35-5.7Q451.35-4.6 452.25-3.88 453.15-3.15 455.55-3.15L455.55-3.15 460.25-3.15Q464.5-3.15 466.65-1.75 468.8-0.35 468.8 2.7L468.8 2.7Q468.8 5 467.28 6.9 465.75 8.8 462.98 9.98 460.2 11.15 456.4 11.15ZM457 8.2L457 8.2Q459.3 8.2 460.98 7.5 462.65 6.8 463.6 5.7 464.55 4.6 464.55 3.35L464.55 3.35Q464.55 1.7 463.33 1.05 462.1 0.4 459.75 0.4L459.75 0.4 455.65 0.4Q454.95 0.4 454.13 0.33 453.3 0.25 452.5 0.05L452.5 0.05Q451.2 0.95 450.65 1.98 450.1 3 450.1 4L450.1 4Q450.1 5.95 451.95 7.08 453.8 8.2 457 8.2ZM456.4-10.6L456.4-10.6Q457.8-10.6 458.93-11.3 460.05-12 460.75-13.25 461.45-14.5 461.45-16.25L461.45-16.25Q461.45-18 460.78-19.23 460.1-20.45 458.95-21.13 457.8-21.8 456.4-21.8L456.4-21.8Q454.3-21.8 452.85-20.35 451.4-18.9 451.4-16.25L451.4-16.25Q451.4-14.5 452.08-13.25 452.75-12 453.9-11.3 455.05-10.6 456.4-10.6ZM479.1 0.6L479.1 0.6Q477.05 0.6 475.42-0.23 473.8-1.05 472.87-2.63 471.95-4.2 471.95-6.35L471.95-6.35Q471.95-10.3 475.52-12.45 479.1-14.6 486.8-15.4L486.8-15.4Q486.8-16.95 486.4-18.32 486-19.7 484.9-20.55 483.8-21.4 481.9-21.4L481.9-21.4Q479.8-21.4 477.97-20.58 476.15-19.75 474.7-18.8L474.7-18.8 473-21.75Q474.15-22.5 475.65-23.25 477.15-24 478.9-24.48 480.65-24.95 482.6-24.95L482.6-24.95Q485.6-24.95 487.5-23.7 489.4-22.45 490.27-20.2 491.15-17.95 491.15-14.85L491.15-14.85 491.15 0 487.6 0 487.2-2.9 487.1-2.9Q485.35-1.45 483.35-0.43 481.35 0.6 479.1 0.6ZM480.35-2.9L480.35-2.9Q482.1-2.9 483.6-3.7 485.1-4.5 486.8-6L486.8-6 486.8-12.6Q482.85-12.1 480.52-11.3 478.2-10.5 477.2-9.33 476.2-8.15 476.2-6.65L476.2-6.65Q476.2-4.65 477.42-3.78 478.65-2.9 480.35-2.9ZM503.1 0L498.75 0 498.75-24.35 502.3-24.35 502.7-20.85 502.8-20.85Q504.55-22.6 506.5-23.78 508.45-24.95 510.95-24.95L510.95-24.95Q514.85-24.95 516.62-22.5 518.4-20.05 518.4-15.4L518.4-15.4 518.4 0 514.05 0 514.05-14.85Q514.05-18.2 513-19.7 511.95-21.2 509.6-21.2L509.6-21.2Q507.75-21.2 506.32-20.28 504.9-19.35 503.1-17.55L503.1-17.55 503.1 0ZM530.49 0L526.14 0 526.14-24.35 530.49-24.35 530.49 0ZM528.34-29.25L528.34-29.25Q527.14-29.25 526.34-30.03 525.54-30.8 525.54-32.05L525.54-32.05Q525.54-33.25 526.34-34.02 527.14-34.8 528.34-34.8L528.34-34.8Q529.59-34.8 530.37-34.02 531.14-33.25 531.14-32.05L531.14-32.05Q531.14-30.8 530.37-30.03 529.59-29.25 528.34-29.25ZM554.59 0L536.09 0 536.09-2.3 548.69-20.8 537.49-20.8 537.49-24.35 554.19-24.35 554.19-22 541.54-3.5 554.59-3.5 554.59 0ZM569.79 0.6L569.79 0.6Q566.54 0.6 563.89-0.93 561.24-2.45 559.66-5.3 558.09-8.15 558.09-12.15L558.09-12.15Q558.09-16.1 559.66-18.98 561.24-21.85 563.76-23.4 566.29-24.95 569.09-24.95L569.09-24.95Q572.19-24.95 574.39-23.53 576.59-22.1 577.71-19.53 578.84-16.95 578.84-13.5L578.84-13.5Q578.84-12.85 578.79-12.2 578.74-11.55 578.64-11.1L578.64-11.1 561.49-11.1 561.44-14.2 575.04-14.2Q575.04-17.75 573.51-19.63 571.99-21.5 569.14-21.5L569.14-21.5Q567.44-21.5 565.84-20.53 564.24-19.55 563.21-17.48 562.19-15.4 562.19-12.15L562.19-12.15Q562.19-9 563.31-6.95 564.44-4.9 566.29-3.88 568.14-2.85 570.34-2.85L570.34-2.85Q572.09-2.85 573.54-3.38 574.99-3.9 576.34-4.75L576.34-4.75 577.89-1.95Q576.29-0.9 574.26-0.15 572.24 0.6 569.79 0.6ZM593.03 0.6L593.03 0.6Q588.48 0.6 585.76-2.75 583.03-6.1 583.03-12.15L583.03-12.15Q583.03-16.1 584.51-18.95 585.98-21.8 588.38-23.38 590.78-24.95 593.53-24.95L593.53-24.95Q595.68-24.95 597.21-24.2 598.73-23.45 600.28-22.15L600.28-22.15 600.08-26.3 600.08-35.6 604.43-35.6 604.43 0 600.88 0 600.48-2.85 600.38-2.85Q598.98-1.45 597.08-0.43 595.18 0.6 593.03 0.6ZM594.03-3.05L594.03-3.05Q595.68-3.05 597.16-3.85 598.63-4.65 600.08-6.3L600.08-6.3 600.08-18.85Q598.58-20.2 597.18-20.75 595.78-21.3 594.28-21.3L594.28-21.3Q592.43-21.3 590.88-20.18 589.33-19.05 588.41-16.98 587.48-14.9 587.48-12.2L587.48-12.2Q587.48-7.85 589.21-5.45 590.93-3.05 594.03-3.05Z" opacity="1" transform="matrix(1,0,0,1,0,0)" fill="#4096ff" class="slogan-text-1" data-fill-palette-color="secondary" id="text-1"></path></svg></g></svg></g></svg></g></svg></g><g><svg viewBox="0 0 228.96964901500462 266.06817644468987" height="266.06817644468987" width="228.96964901500462"><g><svg xmlns="http://www.w3.org/2000/svg" xmlns:xlink="http://www.w3.org/1999/xlink" version="1.1" x="0" y="0" viewBox="2.96217666004358 2.7871975281759584 64.08128218807998 74.463973585" enable-background="new 0 0 70 80" xml:space="preserve" height="266.06817644468987" width="228.96964901500462" class="icon-icon-0" data-fill-palette-color="accent" id="icon-0"><path d="M24.6 71.4C19.2 71.2 16.5 71.1 11 70.7 10.3 70.7 9.8 70.1 9.7 69.4 8.6 49.7 8.6 29.9 9.7 10.2 9.7 9.5 10.3 9 11 8.9 27.1 7.7 43.3 7.7 59.4 8.9 60.1 9 60.6 9.5 60.7 10.2 61.3 20.2 61.6 30.3 61.5 40.3 61.5 40.3 61.5 41.1 62 41.8 63.5 43.3 64.3 44 65.8 45.5 67.2 46.8 67 44.7 67 44.7 67.2 32 66.7 19.2 65.7 6.5 65.6 5.2 64.5 4 63.3 3.9 44.1 2.4 25.6 2.4 6.4 4 5.2 4.1 4.2 5.3 4.1 6.6 2.6 28.8 2.6 50.7 4 73 4.1 74.3 5.2 75.5 6.4 75.6 15.5 76.6 20 76.9 29.1 77.1 29.1 77.1 31.7 77.2 30.2 75.6 28.9 74.3 28.3 73.6 27 72.3 27.1 72.3 26.3 71.5 24.6 71.4" fill="#4096ff" data-fill-palette-color="accent"></path><path d="M26.9 65.9C26.3 65.3 26.3 64.2 26.9 63.6 28.5 62 29.2 61.2 30.8 59.6 31.4 59 32.4 59 33 59.6 35.6 62.2 36.9 63.5 39.4 66.1 40 66.7 41 66.7 41.6 66.1 41.6 66.1 56.4 50.2 59.6 48 60.3 47.5 61.3 47.4 61.9 47.9 63.5 49.4 64.3 50.1 65.8 51.6 66.4 52.2 66.4 53.1 65.7 53.8 58.3 61.1 51 68.5 43.9 76 42 77.6 38.5 77.7 36.9 76.1 33 72.1 31 70 26.9 65.9" fill="#4096ff" data-fill-palette-color="accent"></path><path d="M55 20.7C55 21.4 54.5 21.9 53.8 21.9 41.2 21.5 28.5 21.5 15.9 21.9 15.2 21.9 14.7 21.4 14.7 20.7 14.7 19.7 14.7 19.2 14.8 18.3 14.8 17.6 15.4 17.1 16.1 17 28.6 16.5 41.2 16.5 53.7 17 54.4 17 54.9 17.6 55 18.3z" fill="#4096ff" data-fill-palette-color="accent"></path><path d="M55.2 32.2C55.2 32.9 54.7 33.4 54 33.4 41.2 33.3 28.5 33.3 15.7 33.4 15 33.4 14.5 32.9 14.5 32.2V29.8C14.5 29.1 15.1 28.6 15.7 28.6 28.4 28.3 41.1 28.3 53.9 28.6 54.6 28.6 55.1 29.2 55.1 29.8 55.2 30.8 55.2 31.3 55.2 32.2" fill="#4096ff" data-fill-palette-color="accent"></path><path d="M55.3 43.7C55.3 44.4 54.7 44.9 54.1 44.9 41.3 45 28.6 45 15.8 44.9 15.1 44.9 14.6 44.3 14.6 43.7V41.3C14.6 40.6 15.2 40.1 15.8 40.1H54.1C54.8 40.1 55.3 40.6 55.3 41.3z" fill="#4096ff" data-fill-palette-color="accent"></path></svg></g></svg></g></svg></g><defs></defs></svg><rect width="395.52" height="160.56720644611647" fill="none" stroke="none" visibility="hidden"></rect></g></svg></g></svg>